<svg width="32" height="32" viewBox="0 0 32 32" fill="none" xmlns="http://www.w3.org/2000/svg">
<path d="M16.9693 4.91599C17.0896 4.78869 17.1837 4.63895 17.2461 4.47531C17.3085 4.31167 17.3381 4.13734 17.3331 3.96227C17.3282 3.7872 17.2888 3.61482 17.2172 3.45498C17.1456 3.29513 17.0433 3.15094 16.916 3.03065C16.7887 2.91036 16.639 2.81632 16.4753 2.7539C16.3117 2.69148 16.1374 2.6619 15.9623 2.66685C15.7872 2.67181 15.6148 2.71119 15.455 2.78276C15.2951 2.85434 15.151 2.95669 15.0307 3.08399L3.69733 15.084C3.46328 15.3315 3.33287 15.6593 3.33287 16C3.33287 16.3407 3.46328 16.6684 3.69733 16.916L15.0307 28.9173C15.1502 29.0474 15.2943 29.1524 15.4547 29.2263C15.6152 29.3002 15.7887 29.3415 15.9652 29.3478C16.1418 29.3541 16.3178 29.3252 16.483 29.2629C16.6483 29.2005 16.7996 29.106 16.928 28.9847C17.0564 28.8635 17.1595 28.7179 17.2312 28.5564C17.3028 28.395 17.3417 28.2209 17.3456 28.0443C17.3494 27.8677 17.3182 27.6921 17.2536 27.5277C17.189 27.3633 17.0924 27.2134 16.9693 27.0867L6.49999 16L16.9693 4.91599Z" fill="white"/>
</svg>
