<svg width="32" height="32" viewBox="0 0 32 32" fill="none" xmlns="http://www.w3.org/2000/svg">
<path d="M26.9907 6.34269C28.4351 7.78694 29.2724 9.72902 29.3309 11.7708C29.3894 13.8126 28.6647 15.7994 27.3053 17.324L15.9987 28.6467L4.69467 17.324C3.33367 15.7986 2.60827 13.8101 2.66738 11.7667C2.72649 9.72323 3.56563 7.77996 5.01253 6.3358C6.45942 4.89163 8.40428 4.05616 10.4478 4.00091C12.4914 3.94566 14.4785 4.67482 16.0013 6.03869C17.525 4.67556 19.5128 3.94752 21.5565 4.00406C23.6002 4.06059 25.5446 4.89741 26.9907 6.34269ZM6.896 8.22936C5.94168 9.18363 5.38461 10.4642 5.33711 11.813C5.2896 13.1617 5.75518 14.4783 6.64 15.4974L16 24.872L25.36 15.4987C26.2449 14.4793 26.7103 13.1622 26.6623 11.8131C26.6144 10.4641 26.0566 9.18338 25.1016 8.22936C24.1466 7.27533 22.8653 6.71895 21.5162 6.67243C20.1671 6.62591 18.8505 7.09271 17.832 7.97869L12.2293 13.5827L10.3427 11.6974L14.1093 7.92802L14 7.83602C12.975 7.0158 11.6836 6.60241 10.3728 6.67498C9.06208 6.74755 7.82415 7.30099 6.896 8.22936Z" fill="white"/>
</svg>
