<svg width="32" height="32" viewBox="0 0 32 32" fill="none" xmlns="http://www.w3.org/2000/svg">
<path d="M16 20V24M29.3333 16.272V18.3C29.3333 23.5 29.3333 26.1014 27.7707 27.7174C26.208 29.3334 23.6947 29.3334 18.6667 29.3334H13.3333C8.30534 29.3334 5.79067 29.3334 4.22934 27.7174C2.668 26.1014 2.66667 23.5014 2.66667 18.3V16.272C2.66667 13.22 2.66667 11.6947 3.36001 10.4307C4.05067 9.16535 5.316 8.38135 7.84534 6.81069L10.512 5.15602C13.1853 3.49602 14.5227 2.66669 16 2.66669C17.4773 2.66669 18.8133 3.49602 21.488 5.15602L24.1547 6.81069C26.684 8.38135 27.9493 9.16535 28.6413 10.4307" stroke="white" stroke-width="2" stroke-linecap="round"/>
</svg>
