<svg width="30" height="30" viewBox="0 0 30 30" fill="none" xmlns="http://www.w3.org/2000/svg">
<rect width="30" height="30" rx="15" transform="matrix(1 0 0 -1 0 30)" fill="black" fill-opacity="0.5"/>
<path d="M18.6866 22.243C18.9609 22.0561 19.1497 21.7679 19.2115 21.4418C19.2734 21.1158 19.2032 20.7785 19.0163 20.5041C18.8294 20.2298 18.5413 20.041 18.2152 19.9792C17.8891 19.9173 17.5518 19.9875 17.2775 20.1744C16.1222 20.9598 14.7372 21.336 13.3433 21.243C11.9494 21.15 10.6267 20.5932 9.58597 19.6613C8.54521 18.7294 7.84624 17.476 7.60043 16.1008C7.35462 14.7256 7.5761 13.3077 8.22959 12.073C8.88308 10.8382 9.93098 9.85771 11.2064 9.2876C12.4817 8.7175 13.9112 8.5906 15.2671 8.92713C16.6229 9.26367 17.8272 10.0443 18.688 11.1446C19.5487 12.2449 20.0165 13.6016 20.0168 14.9986C20.0168 15.3305 20.1486 15.6488 20.3833 15.8835C20.618 16.1182 20.9363 16.25 21.2682 16.25C21.6001 16.25 21.9184 16.1182 22.1531 15.8835C22.3877 15.6488 22.5196 15.3305 22.5196 14.9986C22.5193 13.0427 21.8644 11.1431 20.6592 9.6026C19.4541 8.06207 17.768 6.96918 15.8697 6.49807C13.9714 6.02697 11.97 6.20474 10.1844 7.00308C8.3988 7.80142 6.93177 9.17438 6.01703 10.9032C5.10229 12.6321 4.79247 14.6173 5.13692 16.5427C5.48138 18.468 6.4603 20.2227 7.91772 21.5271C9.37513 22.8316 11.2272 23.6107 13.1788 23.7405C15.1304 23.8702 17.0693 23.343 18.6866 22.243Z" fill="#D9D9D9"/>
<path d="M18.1885 11.8625C18.05 11.774 17.8955 11.7135 17.7337 11.6847C17.5719 11.6558 17.406 11.6591 17.2454 11.6944C17.0849 11.7297 16.9329 11.7962 16.7981 11.8902C16.6632 11.9842 16.5483 12.1039 16.4597 12.2423C16.3711 12.3808 16.3107 12.5353 16.2818 12.6972C16.253 12.859 16.2563 13.0249 16.2915 13.1854C16.3268 13.3459 16.3934 13.498 16.4874 13.6328C16.5814 13.7676 16.701 13.8826 16.8395 13.9712L21.1969 16.758C21.4764 16.931 21.8128 16.9871 22.1333 16.9141C22.4538 16.8411 22.7328 16.6449 22.9098 16.3679C23.0869 16.0909 23.1478 15.7553 23.0795 15.4338C23.0111 15.1122 22.819 14.8305 22.5446 14.6494L18.1885 11.8625Z" fill="#D9D9D9"/>
<path d="M24.901 11.9827C25.0287 11.6809 25.033 11.341 24.9129 11.0361C24.7928 10.7313 24.5579 10.4856 24.2586 10.3521C23.9594 10.2185 23.6197 10.2077 23.3125 10.3219C23.0054 10.436 22.7553 10.6662 22.6159 10.9628L20.7288 15.1925C20.6581 15.3431 20.6181 15.5063 20.6112 15.6725C20.6042 15.8387 20.6305 16.0047 20.6885 16.1606C20.7465 16.3166 20.835 16.4594 20.9488 16.5807C21.0626 16.7021 21.1995 16.7995 21.3514 16.8673C21.5034 16.9351 21.6673 16.9719 21.8336 16.9756C22 16.9793 22.1654 16.9498 22.3202 16.8889C22.475 16.8279 22.616 16.7366 22.7351 16.6205C22.8543 16.5043 22.949 16.3656 23.0139 16.2124L24.901 11.9827Z" fill="#D9D9D9"/>
</svg>
