<svg width="30" height="30" viewBox="0 0 30 30" fill="none" xmlns="http://www.w3.org/2000/svg">
<rect width="30" height="30" rx="15" transform="matrix(1 0 0 -1 0 30)" fill="black" fill-opacity="0.5"/>
<path d="M23.0877 14.4555L24.4784 13.2171C24.7352 13.0028 24.9067 12.7037 24.962 12.3738C25.0174 12.044 24.9527 11.7052 24.7799 11.4189L23.1031 8.55457C22.973 8.33531 22.7873 8.15434 22.5647 8.03001C22.3396 7.90542 22.0867 7.8393 21.8294 7.83772C21.6698 7.83674 21.511 7.86061 21.3587 7.90848L19.5789 8.49611C19.2671 8.29613 18.9431 8.11718 18.6067 7.95925L18.2329 6.15482C18.1637 5.8229 17.9789 5.52633 17.7114 5.31799C17.4405 5.10593 17.1047 4.99399 16.7607 5.0011H13.2888C12.9448 4.99399 12.609 5.10593 12.3381 5.31799C12.0712 5.52658 11.887 5.82312 11.8182 6.15482L11.4428 7.95925C11.1109 8.1193 10.7888 8.29909 10.4783 8.49765L8.69237 7.90848C8.54008 7.86061 8.38128 7.83674 8.22165 7.83772C7.96484 7.83956 7.71259 7.90567 7.48788 8.03001C7.2655 8.15391 7.07978 8.33433 6.94948 8.55303L5.21274 11.4189C5.03219 11.7078 4.9632 12.0526 5.01871 12.3888C5.07421 12.7249 5.2504 13.0293 5.51425 13.2448L6.90333 15V15.5446L5.51271 16.7829C5.25591 16.9972 5.08433 17.2964 5.02902 17.6262C4.97371 17.9561 5.03834 18.2948 5.2112 18.5812L6.94794 21.4455C7.07803 21.6647 7.26377 21.8457 7.48634 21.97C7.71105 22.0944 7.9633 22.1605 8.22011 22.1623C8.3783 22.1723 8.53708 22.1578 8.69083 22.1193L10.4414 21.5039C10.7542 21.7039 11.0783 21.8829 11.4136 22.0408L11.789 23.8452C11.8577 24.1769 12.042 24.4735 12.3089 24.6821C12.5798 24.8941 12.9156 25.0061 13.2596 24.9989H16.7023C17.0462 25.0061 17.3821 24.8941 17.6529 24.6821C17.9221 24.4713 18.1067 24.1744 18.1729 23.8452L18.5482 22.0408C18.8815 21.8818 19.203 21.7024 19.5127 21.5024L21.3002 22.09C21.4986 22.1546 21.7082 22.1772 21.9158 22.1566C22.1234 22.1359 22.3245 22.0724 22.5063 21.97C22.7293 21.8439 22.9139 21.6624 23.0447 21.447L24.7799 18.5812C24.9628 18.2947 25.0353 17.9515 24.9838 17.6155C24.9323 17.2795 24.7603 16.9737 24.4999 16.7552L23.0877 15.5523V14.4555Z" stroke="#D9D9D9" stroke-width="1.5"/>
<path d="M18.8451 15C18.8451 13.98 18.4399 13.0018 17.7187 12.2806C16.9975 11.5594 16.0193 11.1542 14.9994 11.1542C13.9794 11.1542 13.0012 11.5594 12.28 12.2806C11.5588 13.0018 11.1536 13.98 11.1536 15C11.1536 16.0199 11.5588 16.9981 12.28 17.7193C13.0012 18.4405 13.9794 18.8457 14.9994 18.8457C16.0193 18.8457 16.9975 18.4405 17.7187 17.7193C18.4399 16.9981 18.8451 16.0199 18.8451 15Z" stroke="#D9D9D9" stroke-width="1.5"/>
</svg>
