<svg width="42" height="42" viewBox="0 0 42 42" fill="none" xmlns="http://www.w3.org/2000/svg">
<rect width="42" height="42" rx="21" fill="#9AA7FF"/>
<path d="M16 28V26H23.1C24.15 26 25.0625 25.6667 25.8375 25C26.6125 24.3333 27 23.5 27 22.5C27 21.5 26.6125 20.6667 25.8375 20C25.0625 19.3333 24.15 19 23.1 19H16.8L19.4 21.6L18 23L13 18L18 13L19.4 14.4L16.8 17H23.1C24.7167 17 26.1042 17.525 27.2625 18.575C28.4208 19.625 29 20.9333 29 22.5C29 24.0667 28.4208 25.375 27.2625 26.425C26.1042 27.475 24.7167 28 23.1 28H16Z" fill="white"/>
</svg>
