<svg width="42" height="42" viewBox="0 0 42 42" fill="none" xmlns="http://www.w3.org/2000/svg">
<rect width="42" height="42" rx="21" fill="#9AA7FF"/>
<path d="M14 28H15.425L25.2 18.225L23.775 16.8L14 26.575V28ZM12 30V25.75L25.2 12.575C25.4 12.3917 25.6208 12.25 25.8625 12.15C26.1042 12.05 26.3583 12 26.625 12C26.8917 12 27.15 12.05 27.4 12.15C27.65 12.25 27.8667 12.4 28.05 12.6L29.425 14C29.625 14.1833 29.7708 14.4 29.8625 14.65C29.9542 14.9 30 15.15 30 15.4C30 15.6667 29.9542 15.9208 29.8625 16.1625C29.7708 16.4042 29.625 16.625 29.425 16.825L16.25 30H12ZM24.475 17.525L23.775 16.8L25.2 18.225L24.475 17.525Z" fill="#F7F4FF"/>
</svg>
